G04 #@! TF.FileFunction,Legend,Top*
%FSLAX46Y46*%
G04 Gerber Fmt 4.6, Leading zero omitted, Abs format (unit mm)*
%MOMM*%
%LPD*%
G01*
G04 APERTURE LIST*
%ADD10C,0.100000*%
%ADD11C,0.187500*%
%ADD12C,0.250000*%
%ADD13C,0.150000*%
%ADD14C,0.375000*%
%ADD15C,0.120000*%
%ADD16C,0.015000*%
G04 APERTURE END LIST*
D10*
D11*
X141252874Y-88863691D02*
X142002874Y-88863691D01*
X141467160Y-89113691D01*
X142002874Y-89363691D01*
X141252874Y-89363691D01*
X142002874Y-89863692D02*
X142002874Y-90006549D01*
X141967160Y-90077977D01*
X141895731Y-90149406D01*
X141752874Y-90185120D01*
X141502874Y-90185120D01*
X141360017Y-90149406D01*
X141288589Y-90077977D01*
X141252874Y-90006549D01*
X141252874Y-89863692D01*
X141288589Y-89792263D01*
X141360017Y-89720834D01*
X141502874Y-89685120D01*
X141752874Y-89685120D01*
X141895731Y-89720834D01*
X141967160Y-89792263D01*
X142002874Y-89863692D01*
X142002874Y-90399406D02*
X142002874Y-90827977D01*
X141252874Y-90613691D02*
X142002874Y-90613691D01*
X142002874Y-91220835D02*
X142002874Y-91363692D01*
X141967160Y-91435120D01*
X141895731Y-91506549D01*
X141752874Y-91542263D01*
X141502874Y-91542263D01*
X141360017Y-91506549D01*
X141288589Y-91435120D01*
X141252874Y-91363692D01*
X141252874Y-91220835D01*
X141288589Y-91149406D01*
X141360017Y-91077977D01*
X141502874Y-91042263D01*
X141752874Y-91042263D01*
X141895731Y-91077977D01*
X141967160Y-91149406D01*
X142002874Y-91220835D01*
X141252874Y-92292263D02*
X141610017Y-92042263D01*
X141252874Y-91863691D02*
X142002874Y-91863691D01*
X142002874Y-92149406D01*
X141967160Y-92220834D01*
X141931446Y-92256549D01*
X141860017Y-92292263D01*
X141752874Y-92292263D01*
X141681446Y-92256549D01*
X141645731Y-92220834D01*
X141610017Y-92149406D01*
X141610017Y-91863691D01*
D12*
X142720229Y-96320128D02*
X142720229Y-96653462D01*
X142196419Y-96796319D02*
X142196419Y-96320128D01*
X143196419Y-96320128D01*
X143196419Y-96796319D01*
X143196419Y-97510605D02*
X142482133Y-97510605D01*
X142339276Y-97462985D01*
X142244038Y-97367747D01*
X142196419Y-97224890D01*
X142196419Y-97129652D01*
X142720229Y-97986795D02*
X142720229Y-98320129D01*
X142196419Y-98462986D02*
X142196419Y-97986795D01*
X143196419Y-97986795D01*
X143196419Y-98462986D01*
X142291657Y-99462986D02*
X142244038Y-99415367D01*
X142196419Y-99272510D01*
X142196419Y-99177272D01*
X142244038Y-99034414D01*
X142339276Y-98939176D01*
X142434514Y-98891557D01*
X142624990Y-98843938D01*
X142767848Y-98843938D01*
X142958324Y-98891557D01*
X143053562Y-98939176D01*
X143148800Y-99034414D01*
X143196419Y-99177272D01*
X143196419Y-99272510D01*
X143148800Y-99415367D01*
X143101181Y-99462986D01*
X143196419Y-99748700D02*
X143196419Y-100320129D01*
X142196419Y-100034414D02*
X143196419Y-100034414D01*
D13*
X147689186Y-92170129D02*
X147689186Y-91570129D01*
X148317757Y-92112986D02*
X148289186Y-92141557D01*
X148203472Y-92170129D01*
X148146329Y-92170129D01*
X148060614Y-92141557D01*
X148003472Y-92084414D01*
X147974900Y-92027271D01*
X147946329Y-91912986D01*
X147946329Y-91827271D01*
X147974900Y-91712986D01*
X148003472Y-91655843D01*
X148060614Y-91598700D01*
X148146329Y-91570129D01*
X148203472Y-91570129D01*
X148289186Y-91598700D01*
X148317757Y-91627271D01*
X148889186Y-92170129D02*
X148546329Y-92170129D01*
X148717757Y-92170129D02*
X148717757Y-91570129D01*
X148660614Y-91655843D01*
X148603472Y-91712986D01*
X148546329Y-91741557D01*
X144679091Y-91034749D02*
X144679091Y-90434749D01*
X144821948Y-90434749D01*
X144907663Y-90463320D01*
X144964805Y-90520463D01*
X144993377Y-90577606D01*
X145021948Y-90691891D01*
X145021948Y-90777606D01*
X144993377Y-90891891D01*
X144964805Y-90949034D01*
X144907663Y-91006177D01*
X144821948Y-91034749D01*
X144679091Y-91034749D01*
X145250520Y-90491891D02*
X145279091Y-90463320D01*
X145336234Y-90434749D01*
X145479091Y-90434749D01*
X145536234Y-90463320D01*
X145564805Y-90491891D01*
X145593377Y-90549034D01*
X145593377Y-90606177D01*
X145564805Y-90691891D01*
X145221948Y-91034749D01*
X145593377Y-91034749D01*
X146279092Y-90406177D02*
X145764806Y-91177606D01*
X146393377Y-90434749D02*
X146736234Y-90434749D01*
X146564805Y-91034749D02*
X146564805Y-90434749D01*
X147279091Y-91034749D02*
X147079091Y-90749034D01*
X146936234Y-91034749D02*
X146936234Y-90434749D01*
X147164806Y-90434749D01*
X147221948Y-90463320D01*
X147250520Y-90491891D01*
X147279091Y-90549034D01*
X147279091Y-90634749D01*
X147250520Y-90691891D01*
X147221948Y-90720463D01*
X147164806Y-90749034D01*
X146936234Y-90749034D01*
X147850520Y-91034749D02*
X147507663Y-91034749D01*
X147679091Y-91034749D02*
X147679091Y-90434749D01*
X147621948Y-90520463D01*
X147564806Y-90577606D01*
X147507663Y-90606177D01*
D11*
X155600557Y-100950186D02*
X155600557Y-100200186D01*
X156386272Y-100878757D02*
X156350558Y-100914471D01*
X156243415Y-100950186D01*
X156171986Y-100950186D01*
X156064843Y-100914471D01*
X155993415Y-100843043D01*
X155957700Y-100771614D01*
X155921986Y-100628757D01*
X155921986Y-100521614D01*
X155957700Y-100378757D01*
X155993415Y-100307329D01*
X156064843Y-100235900D01*
X156171986Y-100200186D01*
X156243415Y-100200186D01*
X156350558Y-100235900D01*
X156386272Y-100271614D01*
X156671986Y-100914471D02*
X156779129Y-100950186D01*
X156957700Y-100950186D01*
X157029129Y-100914471D01*
X157064843Y-100878757D01*
X157100558Y-100807329D01*
X157100558Y-100735900D01*
X157064843Y-100664471D01*
X157029129Y-100628757D01*
X156957700Y-100593043D01*
X156814843Y-100557329D01*
X156743415Y-100521614D01*
X156707700Y-100485900D01*
X156671986Y-100414471D01*
X156671986Y-100343043D01*
X156707700Y-100271614D01*
X156743415Y-100235900D01*
X156814843Y-100200186D01*
X156993415Y-100200186D01*
X157100558Y-100235900D01*
X157421986Y-100950186D02*
X157421986Y-100200186D01*
X157707701Y-100200186D01*
X157779129Y-100235900D01*
X157814844Y-100271614D01*
X157850558Y-100343043D01*
X157850558Y-100450186D01*
X157814844Y-100521614D01*
X157779129Y-100557329D01*
X157707701Y-100593043D01*
X157421986Y-100593043D01*
X144784365Y-103248886D02*
X144534365Y-102891743D01*
X144355793Y-103248886D02*
X144355793Y-102498886D01*
X144641508Y-102498886D01*
X144712936Y-102534600D01*
X144748651Y-102570314D01*
X144784365Y-102641743D01*
X144784365Y-102748886D01*
X144748651Y-102820314D01*
X144712936Y-102856029D01*
X144641508Y-102891743D01*
X144355793Y-102891743D01*
X145070079Y-102570314D02*
X145105793Y-102534600D01*
X145177222Y-102498886D01*
X145355793Y-102498886D01*
X145427222Y-102534600D01*
X145462936Y-102570314D01*
X145498651Y-102641743D01*
X145498651Y-102713171D01*
X145462936Y-102820314D01*
X145034365Y-103248886D01*
X145498651Y-103248886D01*
X146391508Y-103248886D02*
X146391508Y-102498886D01*
X146570080Y-102498886D01*
X146677223Y-102534600D01*
X146748651Y-102606029D01*
X146784366Y-102677457D01*
X146820080Y-102820314D01*
X146820080Y-102927457D01*
X146784366Y-103070314D01*
X146748651Y-103141743D01*
X146677223Y-103213171D01*
X146570080Y-103248886D01*
X146391508Y-103248886D01*
X147534366Y-103248886D02*
X147105794Y-103248886D01*
X147320080Y-103248886D02*
X147320080Y-102498886D01*
X147248651Y-102606029D01*
X147177223Y-102677457D01*
X147105794Y-102713171D01*
X148855795Y-103177457D02*
X148820081Y-103213171D01*
X148712938Y-103248886D01*
X148641509Y-103248886D01*
X148534366Y-103213171D01*
X148462938Y-103141743D01*
X148427223Y-103070314D01*
X148391509Y-102927457D01*
X148391509Y-102820314D01*
X148427223Y-102677457D01*
X148462938Y-102606029D01*
X148534366Y-102534600D01*
X148641509Y-102498886D01*
X148712938Y-102498886D01*
X148820081Y-102534600D01*
X148855795Y-102570314D01*
X149498652Y-102748886D02*
X149498652Y-103248886D01*
X149320081Y-102463171D02*
X149141509Y-102998886D01*
X149605795Y-102998886D01*
X150427224Y-102463171D02*
X149784367Y-103427457D01*
X150605795Y-102498886D02*
X151070081Y-102498886D01*
X150820081Y-102784600D01*
X150927223Y-102784600D01*
X150998652Y-102820314D01*
X151034366Y-102856029D01*
X151070081Y-102927457D01*
X151070081Y-103106029D01*
X151034366Y-103177457D01*
X150998652Y-103213171D01*
X150927223Y-103248886D01*
X150712938Y-103248886D01*
X150641509Y-103213171D01*
X150605795Y-103177457D01*
X151927224Y-102463171D02*
X151284367Y-103427457D01*
X152141509Y-102570314D02*
X152177223Y-102534600D01*
X152248652Y-102498886D01*
X152427223Y-102498886D01*
X152498652Y-102534600D01*
X152534366Y-102570314D01*
X152570081Y-102641743D01*
X152570081Y-102713171D01*
X152534366Y-102820314D01*
X152105795Y-103248886D01*
X152570081Y-103248886D01*
D14*
X155321902Y-122195357D02*
X154179045Y-122195357D01*
X154750474Y-121623929D02*
X154750474Y-122766786D01*
X143179046Y-122195357D02*
X142036189Y-122195357D01*
X141565718Y-72722163D02*
X142708575Y-72722163D01*
X142137146Y-73293591D02*
X142137146Y-72150734D01*
X153708574Y-72722163D02*
X154851431Y-72722163D01*
X138974172Y-125025771D02*
X138974172Y-123525771D01*
X139688458Y-124025771D02*
X139688458Y-125025771D01*
X139688458Y-124168629D02*
X139759886Y-124097200D01*
X139902744Y-124025771D01*
X140117029Y-124025771D01*
X140259886Y-124097200D01*
X140331315Y-124240057D01*
X140331315Y-125025771D01*
X140974172Y-124954343D02*
X141117029Y-125025771D01*
X141402744Y-125025771D01*
X141545601Y-124954343D01*
X141617029Y-124811486D01*
X141617029Y-124740057D01*
X141545601Y-124597200D01*
X141402744Y-124525771D01*
X141188458Y-124525771D01*
X141045601Y-124454343D01*
X140974172Y-124311486D01*
X140974172Y-124240057D01*
X141045601Y-124097200D01*
X141188458Y-124025771D01*
X141402744Y-124025771D01*
X141545601Y-124097200D01*
X142045601Y-124025771D02*
X142617030Y-124025771D01*
X142259887Y-123525771D02*
X142259887Y-124811486D01*
X142331315Y-124954343D01*
X142474173Y-125025771D01*
X142617030Y-125025771D01*
X143759887Y-125025771D02*
X143759887Y-124240057D01*
X143688458Y-124097200D01*
X143545601Y-124025771D01*
X143259887Y-124025771D01*
X143117030Y-124097200D01*
X143759887Y-124954343D02*
X143617030Y-125025771D01*
X143259887Y-125025771D01*
X143117030Y-124954343D01*
X143045601Y-124811486D01*
X143045601Y-124668629D01*
X143117030Y-124525771D01*
X143259887Y-124454343D01*
X143617030Y-124454343D01*
X143759887Y-124382914D01*
X144331316Y-125025771D02*
X145117030Y-124025771D01*
X144331316Y-124025771D02*
X145117030Y-125025771D01*
X146831316Y-125025771D02*
X146831316Y-123525771D01*
X147188459Y-123525771D01*
X147402744Y-123597200D01*
X147545602Y-123740057D01*
X147617030Y-123882914D01*
X147688459Y-124168629D01*
X147688459Y-124382914D01*
X147617030Y-124668629D01*
X147545602Y-124811486D01*
X147402744Y-124954343D01*
X147188459Y-125025771D01*
X146831316Y-125025771D01*
X148331316Y-125025771D02*
X148331316Y-124025771D01*
X148331316Y-124311486D02*
X148402744Y-124168629D01*
X148474173Y-124097200D01*
X148617030Y-124025771D01*
X148759887Y-124025771D01*
X149259887Y-125025771D02*
X149259887Y-124025771D01*
X149259887Y-123525771D02*
X149188458Y-123597200D01*
X149259887Y-123668629D01*
X149331315Y-123597200D01*
X149259887Y-123525771D01*
X149259887Y-123668629D01*
X149831316Y-124025771D02*
X150188459Y-125025771D01*
X150545601Y-124025771D01*
X151688458Y-124954343D02*
X151545601Y-125025771D01*
X151259887Y-125025771D01*
X151117030Y-124954343D01*
X151045601Y-124811486D01*
X151045601Y-124240057D01*
X151117030Y-124097200D01*
X151259887Y-124025771D01*
X151545601Y-124025771D01*
X151688458Y-124097200D01*
X151759887Y-124240057D01*
X151759887Y-124382914D01*
X151045601Y-124525771D01*
X152402744Y-125025771D02*
X152402744Y-124025771D01*
X152402744Y-124311486D02*
X152474172Y-124168629D01*
X152545601Y-124097200D01*
X152688458Y-124025771D01*
X152831315Y-124025771D01*
X154259886Y-123525771D02*
X154759886Y-125025771D01*
X155259886Y-123525771D01*
X155688457Y-123668629D02*
X155759886Y-123597200D01*
X155902743Y-123525771D01*
X156259886Y-123525771D01*
X156402743Y-123597200D01*
X156474172Y-123668629D01*
X156545600Y-123811486D01*
X156545600Y-123954343D01*
X156474172Y-124168629D01*
X155617029Y-125025771D01*
X156545600Y-125025771D01*
X157188457Y-124882914D02*
X157259885Y-124954343D01*
X157188457Y-125025771D01*
X157117028Y-124954343D01*
X157188457Y-124882914D01*
X157188457Y-125025771D01*
X158188457Y-123525771D02*
X158331314Y-123525771D01*
X158474171Y-123597200D01*
X158545600Y-123668629D01*
X158617029Y-123811486D01*
X158688457Y-124097200D01*
X158688457Y-124454343D01*
X158617029Y-124740057D01*
X158545600Y-124882914D01*
X158474171Y-124954343D01*
X158331314Y-125025771D01*
X158188457Y-125025771D01*
X158045600Y-124954343D01*
X157974171Y-124882914D01*
X157902743Y-124740057D01*
X157831314Y-124454343D01*
X157831314Y-124097200D01*
X157902743Y-123811486D01*
X157974171Y-123668629D01*
X158045600Y-123597200D01*
X158188457Y-123525771D01*
D13*
X146636800Y-92511400D02*
X146636800Y-92561400D01*
X150786800Y-92511400D02*
X150786800Y-92656400D01*
X150786800Y-97661400D02*
X150786800Y-97516400D01*
X146636800Y-97661400D02*
X146636800Y-97516400D01*
X146636800Y-92511400D02*
X150786800Y-92511400D01*
X146636800Y-97661400D02*
X150786800Y-97661400D01*
X146636800Y-92561400D02*
X145236800Y-92561400D01*
X147359320Y-101360380D02*
X147359320Y-99460380D01*
X146259320Y-101360380D02*
X146259320Y-99460380D01*
X146809320Y-100460380D02*
X146809320Y-100010380D01*
X146559320Y-100510380D02*
X147059320Y-100510380D01*
X146809320Y-100510380D02*
X146559320Y-100260380D01*
X146559320Y-100260380D02*
X147059320Y-100260380D01*
X147059320Y-100260380D02*
X146809320Y-100510380D01*
X142302800Y-89707400D02*
X142302800Y-91507400D01*
X143502800Y-89707400D02*
X143502800Y-91507400D01*
X152418200Y-99844300D02*
X152418200Y-100544300D01*
X151218200Y-100544300D02*
X151218200Y-99844300D01*
X153901640Y-88679960D02*
X153901640Y-87679960D01*
X155251640Y-87679960D02*
X155251640Y-88679960D01*
X150779900Y-99852000D02*
X150779900Y-100552000D01*
X149579900Y-100552000D02*
X149579900Y-99852000D01*
D15*
X146284400Y-86826200D02*
X146284400Y-87756200D01*
X146284400Y-89986200D02*
X146284400Y-89056200D01*
X146284400Y-89986200D02*
X149444400Y-89986200D01*
X146284400Y-86826200D02*
X147744400Y-86826200D01*
D13*
X141531800Y-101030600D02*
X141531800Y-99480600D01*
X141251800Y-95670600D02*
X141251800Y-98210600D01*
X141251800Y-98210600D02*
X138711800Y-98210600D01*
X138431800Y-99480600D02*
X138431800Y-101030600D01*
X138431800Y-101030600D02*
X141531800Y-101030600D01*
X138711800Y-98210600D02*
X138711800Y-95670600D01*
X138711800Y-95670600D02*
X141251800Y-95670600D01*
X141544500Y-108777600D02*
X141544500Y-107227600D01*
X141264500Y-103417600D02*
X141264500Y-105957600D01*
X141264500Y-105957600D02*
X138724500Y-105957600D01*
X138444500Y-107227600D02*
X138444500Y-108777600D01*
X138444500Y-108777600D02*
X141544500Y-108777600D01*
X138724500Y-105957600D02*
X138724500Y-103417600D01*
X138724500Y-103417600D02*
X141264500Y-103417600D01*
X153913700Y-91632000D02*
X153913700Y-96712000D01*
X153633700Y-99532000D02*
X153633700Y-97982000D01*
X156453700Y-99252000D02*
X156453700Y-96712000D01*
X156453700Y-96712000D02*
X153913700Y-96712000D01*
X153913700Y-91632000D02*
X158993700Y-91632000D01*
X158993700Y-91632000D02*
X158993700Y-96712000D01*
X153633700Y-99532000D02*
X155183700Y-99532000D01*
X158993700Y-99252000D02*
X156453700Y-99252000D01*
X158993700Y-96712000D02*
X158993700Y-99252000D01*
X145853640Y-99795760D02*
X145853640Y-100795760D01*
X144503640Y-100795760D02*
X144503640Y-99795760D01*
X149078100Y-99869700D02*
X149078100Y-100569700D01*
X147878100Y-100569700D02*
X147878100Y-99869700D01*
X151309560Y-87888240D02*
X151309560Y-88888240D01*
X149959560Y-88888240D02*
X149959560Y-87888240D01*
X137939040Y-87887440D02*
X137939040Y-89437440D01*
X138219040Y-93247440D02*
X138219040Y-90707440D01*
X138219040Y-90707440D02*
X140759040Y-90707440D01*
X141039040Y-89437440D02*
X141039040Y-87887440D01*
X141039040Y-87887440D02*
X137939040Y-87887440D01*
X140759040Y-90707440D02*
X140759040Y-93247440D01*
X140759040Y-93247440D02*
X138219040Y-93247440D01*
D16*
X136519867Y-84477000D02*
X137586534Y-84477000D01*
X137053201Y-85010333D02*
X137053201Y-83943667D01*
X136519867Y-84477000D02*
X137586534Y-84477000D01*
X137053201Y-85010333D02*
X137053201Y-83943667D01*
X136519867Y-84477000D02*
X137586534Y-84477000D01*
X137053201Y-85010333D02*
X137053201Y-83943667D01*
X136519867Y-84477000D02*
X137586534Y-84477000D01*
X137053201Y-85010333D02*
X137053201Y-83943667D01*
D13*
X154604040Y-91061966D02*
X154354040Y-90704823D01*
X154175468Y-91061966D02*
X154175468Y-90311966D01*
X154461183Y-90311966D01*
X154532611Y-90347680D01*
X154568326Y-90383394D01*
X154604040Y-90454823D01*
X154604040Y-90561966D01*
X154568326Y-90633394D01*
X154532611Y-90669109D01*
X154461183Y-90704823D01*
X154175468Y-90704823D01*
X155318326Y-91061966D02*
X154889754Y-91061966D01*
X155104040Y-91061966D02*
X155104040Y-90311966D01*
X155032611Y-90419109D01*
X154961183Y-90490537D01*
X154889754Y-90526251D01*
D16*
X159519867Y-111856000D02*
X160586534Y-111856000D01*
X160053201Y-112389333D02*
X160053201Y-111322667D01*
X159519867Y-111856000D02*
X160586534Y-111856000D01*
X160053201Y-112389333D02*
X160053201Y-111322667D01*
X159519867Y-111856000D02*
X160586534Y-111856000D01*
X160053201Y-112389333D02*
X160053201Y-111322667D01*
X159519867Y-111856000D02*
X160586534Y-111856000D01*
X160053201Y-112389333D02*
X160053201Y-111322667D01*
D13*
X150484160Y-91315966D02*
X150234160Y-90958823D01*
X150055588Y-91315966D02*
X150055588Y-90565966D01*
X150341303Y-90565966D01*
X150412731Y-90601680D01*
X150448446Y-90637394D01*
X150484160Y-90708823D01*
X150484160Y-90815966D01*
X150448446Y-90887394D01*
X150412731Y-90923109D01*
X150341303Y-90958823D01*
X150055588Y-90958823D01*
X150734160Y-90565966D02*
X151198446Y-90565966D01*
X150948446Y-90851680D01*
X151055588Y-90851680D01*
X151127017Y-90887394D01*
X151162731Y-90923109D01*
X151198446Y-90994537D01*
X151198446Y-91173109D01*
X151162731Y-91244537D01*
X151127017Y-91280251D01*
X151055588Y-91315966D01*
X150841303Y-91315966D01*
X150769874Y-91280251D01*
X150734160Y-91244537D01*
M02*
