%MOIN*%
%FSLAX34Y34*%
%IPPOS*%
G04 --Define apertures--*
%ADD10C,0.0039*%
%ADD11C,0.0074*%
%ADD12C,0.0098*%
%ADD13C,0.0059*%
%ADD14C,0.0148*%
%ADD15C,0.0047*%
%ADD16C,0.0006*%
G04 --Start main section--*
G54D11*
G01X0056345Y-034996D02*
G01X0056641Y-034996D01*
G01X0056641Y-034996D02*
G01X0056430Y-035094D01*
G01X0056430Y-035094D02*
G01X0056641Y-035193D01*
G01X0056641Y-035193D02*
G01X0056345Y-035193D01*
G01X0056641Y-035389D02*
G01X0056641Y-035446D01*
G01X0056641Y-035446D02*
G01X0056627Y-035474D01*
G01X0056627Y-035474D02*
G01X0056598Y-035502D01*
G01X0056598Y-035502D02*
G01X0056542Y-035516D01*
G01X0056542Y-035516D02*
G01X0056444Y-035516D01*
G01X0056444Y-035516D02*
G01X0056388Y-035502D01*
G01X0056388Y-035502D02*
G01X0056359Y-035474D01*
G01X0056359Y-035474D02*
G01X0056345Y-035446D01*
G01X0056345Y-035446D02*
G01X0056345Y-035389D01*
G01X0056345Y-035389D02*
G01X0056359Y-035361D01*
G01X0056359Y-035361D02*
G01X0056388Y-035333D01*
G01X0056388Y-035333D02*
G01X0056444Y-035319D01*
G01X0056444Y-035319D02*
G01X0056542Y-035319D01*
G01X0056542Y-035319D02*
G01X0056598Y-035333D01*
G01X0056598Y-035333D02*
G01X0056627Y-035361D01*
G01X0056627Y-035361D02*
G01X0056641Y-035389D01*
G01X0056641Y-035600D02*
G01X0056641Y-035769D01*
G01X0056345Y-035685D02*
G01X0056641Y-035685D01*
G01X0056641Y-035924D02*
G01X0056641Y-035980D01*
G01X0056641Y-035980D02*
G01X0056627Y-036008D01*
G01X0056627Y-036008D02*
G01X0056598Y-036036D01*
G01X0056598Y-036036D02*
G01X0056542Y-036050D01*
G01X0056542Y-036050D02*
G01X0056444Y-036050D01*
G01X0056444Y-036050D02*
G01X0056388Y-036036D01*
G01X0056388Y-036036D02*
G01X0056359Y-036008D01*
G01X0056359Y-036008D02*
G01X0056345Y-035980D01*
G01X0056345Y-035980D02*
G01X0056345Y-035924D01*
G01X0056345Y-035924D02*
G01X0056359Y-035896D01*
G01X0056359Y-035896D02*
G01X0056388Y-035867D01*
G01X0056388Y-035867D02*
G01X0056444Y-035853D01*
G01X0056444Y-035853D02*
G01X0056542Y-035853D01*
G01X0056542Y-035853D02*
G01X0056598Y-035867D01*
G01X0056598Y-035867D02*
G01X0056627Y-035896D01*
G01X0056627Y-035896D02*
G01X0056641Y-035924D01*
G01X0056345Y-036346D02*
G01X0056486Y-036247D01*
G01X0056345Y-036177D02*
G01X0056641Y-036177D01*
G01X0056641Y-036177D02*
G01X0056641Y-036289D01*
G01X0056641Y-036289D02*
G01X0056627Y-036317D01*
G01X0056627Y-036317D02*
G01X0056613Y-036331D01*
G01X0056613Y-036331D02*
G01X0056584Y-036346D01*
G01X0056584Y-036346D02*
G01X0056542Y-036346D01*
G01X0056542Y-036346D02*
G01X0056514Y-036331D01*
G01X0056514Y-036331D02*
G01X0056500Y-036317D01*
G01X0056500Y-036317D02*
G01X0056486Y-036289D01*
G01X0056486Y-036289D02*
G01X0056486Y-036177D01*
G54D12*
G01X0056189Y-037921D02*
G01X0056189Y-038053D01*
G01X0055983Y-038109D02*
G01X0055983Y-037921D01*
G01X0055983Y-037921D02*
G01X0056377Y-037921D01*
G01X0056377Y-037921D02*
G01X0056377Y-038109D01*
G01X0056377Y-038390D02*
G01X0056095Y-038390D01*
G01X0056095Y-038390D02*
G01X0056039Y-038371D01*
G01X0056039Y-038371D02*
G01X0056002Y-038334D01*
G01X0056002Y-038334D02*
G01X0055983Y-038278D01*
G01X0055983Y-038278D02*
G01X0055983Y-038240D01*
G01X0056189Y-038577D02*
G01X0056189Y-038709D01*
G01X0055983Y-038765D02*
G01X0055983Y-038577D01*
G01X0055983Y-038577D02*
G01X0056377Y-038577D01*
G01X0056377Y-038577D02*
G01X0056377Y-038765D01*
G01X0056020Y-039159D02*
G01X0056002Y-039140D01*
G01X0056002Y-039140D02*
G01X0055983Y-039084D01*
G01X0055983Y-039084D02*
G01X0055983Y-039046D01*
G01X0055983Y-039046D02*
G01X0056002Y-038990D01*
G01X0056002Y-038990D02*
G01X0056039Y-038952D01*
G01X0056039Y-038952D02*
G01X0056077Y-038934D01*
G01X0056077Y-038934D02*
G01X0056152Y-038915D01*
G01X0056152Y-038915D02*
G01X0056208Y-038915D01*
G01X0056208Y-038915D02*
G01X0056283Y-038934D01*
G01X0056283Y-038934D02*
G01X0056320Y-038952D01*
G01X0056320Y-038952D02*
G01X0056358Y-038990D01*
G01X0056358Y-038990D02*
G01X0056377Y-039046D01*
G01X0056377Y-039046D02*
G01X0056377Y-039084D01*
G01X0056377Y-039084D02*
G01X0056358Y-039140D01*
G01X0056358Y-039140D02*
G01X0056339Y-039159D01*
G01X0056377Y-039271D02*
G01X0056377Y-039496D01*
G01X0055983Y-039384D02*
G01X0056377Y-039384D01*
G54D13*
G01X0058145Y-036287D02*
G01X0058145Y-036051D01*
G01X0058393Y-036265D02*
G01X0058382Y-036276D01*
G01X0058382Y-036276D02*
G01X0058348Y-036287D01*
G01X0058348Y-036287D02*
G01X0058325Y-036287D01*
G01X0058325Y-036287D02*
G01X0058292Y-036276D01*
G01X0058292Y-036276D02*
G01X0058269Y-036254D01*
G01X0058269Y-036254D02*
G01X0058258Y-036231D01*
G01X0058258Y-036231D02*
G01X0058247Y-036186D01*
G01X0058247Y-036186D02*
G01X0058247Y-036152D01*
G01X0058247Y-036152D02*
G01X0058258Y-036107D01*
G01X0058258Y-036107D02*
G01X0058269Y-036085D01*
G01X0058269Y-036085D02*
G01X0058292Y-036062D01*
G01X0058292Y-036062D02*
G01X0058325Y-036051D01*
G01X0058325Y-036051D02*
G01X0058348Y-036051D01*
G01X0058348Y-036051D02*
G01X0058382Y-036062D01*
G01X0058382Y-036062D02*
G01X0058393Y-036074D01*
G01X0058618Y-036287D02*
G01X0058483Y-036287D01*
G01X0058550Y-036287D02*
G01X0058550Y-036051D01*
G01X0058550Y-036051D02*
G01X0058528Y-036085D01*
G01X0058528Y-036085D02*
G01X0058505Y-036107D01*
G01X0058505Y-036107D02*
G01X0058483Y-036119D01*
G01X0055367Y-034347D02*
G01X0055367Y-034111D01*
G01X0055367Y-034111D02*
G01X0055424Y-034111D01*
G01X0055424Y-034111D02*
G01X0055457Y-034122D01*
G01X0055457Y-034122D02*
G01X0055480Y-034144D01*
G01X0055480Y-034144D02*
G01X0055491Y-034167D01*
G01X0055491Y-034167D02*
G01X0055502Y-034212D01*
G01X0055502Y-034212D02*
G01X0055502Y-034246D01*
G01X0055502Y-034246D02*
G01X0055491Y-034291D01*
G01X0055491Y-034291D02*
G01X0055480Y-034313D01*
G01X0055480Y-034313D02*
G01X0055457Y-034336D01*
G01X0055457Y-034336D02*
G01X0055424Y-034347D01*
G01X0055424Y-034347D02*
G01X0055367Y-034347D01*
G01X0055592Y-034133D02*
G01X0055604Y-034122D01*
G01X0055604Y-034122D02*
G01X0055626Y-034111D01*
G01X0055626Y-034111D02*
G01X0055682Y-034111D01*
G01X0055682Y-034111D02*
G01X0055705Y-034122D01*
G01X0055705Y-034122D02*
G01X0055716Y-034133D01*
G01X0055716Y-034133D02*
G01X0055727Y-034156D01*
G01X0055727Y-034156D02*
G01X0055727Y-034178D01*
G01X0055727Y-034178D02*
G01X0055716Y-034212D01*
G01X0055716Y-034212D02*
G01X0055581Y-034347D01*
G01X0055581Y-034347D02*
G01X0055727Y-034347D01*
G01X0055997Y-034099D02*
G01X0055795Y-034403D01*
G01X0056042Y-034111D02*
G01X0056177Y-034111D01*
G01X0056110Y-034347D02*
G01X0056110Y-034111D01*
G01X0056391Y-034347D02*
G01X0056312Y-034234D01*
G01X0056256Y-034347D02*
G01X0056256Y-034111D01*
G01X0056256Y-034111D02*
G01X0056346Y-034111D01*
G01X0056346Y-034111D02*
G01X0056368Y-034122D01*
G01X0056368Y-034122D02*
G01X0056380Y-034133D01*
G01X0056380Y-034133D02*
G01X0056391Y-034156D01*
G01X0056391Y-034156D02*
G01X0056391Y-034189D01*
G01X0056391Y-034189D02*
G01X0056380Y-034212D01*
G01X0056380Y-034212D02*
G01X0056368Y-034223D01*
G01X0056368Y-034223D02*
G01X0056346Y-034234D01*
G01X0056346Y-034234D02*
G01X0056256Y-034234D01*
G01X0056616Y-034347D02*
G01X0056481Y-034347D01*
G01X0056548Y-034347D02*
G01X0056548Y-034111D01*
G01X0056548Y-034111D02*
G01X0056526Y-034144D01*
G01X0056526Y-034144D02*
G01X0056503Y-034167D01*
G01X0056503Y-034167D02*
G01X0056481Y-034178D01*
G54D11*
G01X0061260Y-039744D02*
G01X0061260Y-039449D01*
G01X0061569Y-039716D02*
G01X0061555Y-039730D01*
G01X0061555Y-039730D02*
G01X0061513Y-039744D01*
G01X0061513Y-039744D02*
G01X0061485Y-039744D01*
G01X0061485Y-039744D02*
G01X0061443Y-039730D01*
G01X0061443Y-039730D02*
G01X0061415Y-039702D01*
G01X0061415Y-039702D02*
G01X0061401Y-039674D01*
G01X0061401Y-039674D02*
G01X0061387Y-039618D01*
G01X0061387Y-039618D02*
G01X0061387Y-039575D01*
G01X0061387Y-039575D02*
G01X0061401Y-039519D01*
G01X0061401Y-039519D02*
G01X0061415Y-039491D01*
G01X0061415Y-039491D02*
G01X0061443Y-039463D01*
G01X0061443Y-039463D02*
G01X0061485Y-039449D01*
G01X0061485Y-039449D02*
G01X0061513Y-039449D01*
G01X0061513Y-039449D02*
G01X0061555Y-039463D01*
G01X0061555Y-039463D02*
G01X0061569Y-039477D01*
G01X0061682Y-039730D02*
G01X0061724Y-039744D01*
G01X0061724Y-039744D02*
G01X0061794Y-039744D01*
G01X0061794Y-039744D02*
G01X0061822Y-039730D01*
G01X0061822Y-039730D02*
G01X0061837Y-039716D01*
G01X0061837Y-039716D02*
G01X0061851Y-039688D01*
G01X0061851Y-039688D02*
G01X0061851Y-039660D01*
G01X0061851Y-039660D02*
G01X0061837Y-039632D01*
G01X0061837Y-039632D02*
G01X0061822Y-039618D01*
G01X0061822Y-039618D02*
G01X0061794Y-039604D01*
G01X0061794Y-039604D02*
G01X0061738Y-039589D01*
G01X0061738Y-039589D02*
G01X0061710Y-039575D01*
G01X0061710Y-039575D02*
G01X0061696Y-039561D01*
G01X0061696Y-039561D02*
G01X0061682Y-039533D01*
G01X0061682Y-039533D02*
G01X0061682Y-039505D01*
G01X0061682Y-039505D02*
G01X0061696Y-039477D01*
G01X0061696Y-039477D02*
G01X0061710Y-039463D01*
G01X0061710Y-039463D02*
G01X0061738Y-039449D01*
G01X0061738Y-039449D02*
G01X0061808Y-039449D01*
G01X0061808Y-039449D02*
G01X0061851Y-039463D01*
G01X0061977Y-039744D02*
G01X0061977Y-039449D01*
G01X0061977Y-039449D02*
G01X0062090Y-039449D01*
G01X0062090Y-039449D02*
G01X0062118Y-039463D01*
G01X0062118Y-039463D02*
G01X0062132Y-039477D01*
G01X0062132Y-039477D02*
G01X0062146Y-039505D01*
G01X0062146Y-039505D02*
G01X0062146Y-039547D01*
G01X0062146Y-039547D02*
G01X0062132Y-039575D01*
G01X0062132Y-039575D02*
G01X0062118Y-039589D01*
G01X0062118Y-039589D02*
G01X0062090Y-039604D01*
G01X0062090Y-039604D02*
G01X0061977Y-039604D01*
G01X0057002Y-040649D02*
G01X0056903Y-040509D01*
G01X0056833Y-040649D02*
G01X0056833Y-040354D01*
G01X0056833Y-040354D02*
G01X0056945Y-040354D01*
G01X0056945Y-040354D02*
G01X0056974Y-040368D01*
G01X0056974Y-040368D02*
G01X0056988Y-040382D01*
G01X0056988Y-040382D02*
G01X0057002Y-040410D01*
G01X0057002Y-040410D02*
G01X0057002Y-040452D01*
G01X0057002Y-040452D02*
G01X0056988Y-040480D01*
G01X0056988Y-040480D02*
G01X0056974Y-040494D01*
G01X0056974Y-040494D02*
G01X0056945Y-040509D01*
G01X0056945Y-040509D02*
G01X0056833Y-040509D01*
G01X0057114Y-040382D02*
G01X0057128Y-040368D01*
G01X0057128Y-040368D02*
G01X0057156Y-040354D01*
G01X0057156Y-040354D02*
G01X0057227Y-040354D01*
G01X0057227Y-040354D02*
G01X0057255Y-040368D01*
G01X0057255Y-040368D02*
G01X0057269Y-040382D01*
G01X0057269Y-040382D02*
G01X0057283Y-040410D01*
G01X0057283Y-040410D02*
G01X0057283Y-040438D01*
G01X0057283Y-040438D02*
G01X0057269Y-040480D01*
G01X0057269Y-040480D02*
G01X0057100Y-040649D01*
G01X0057100Y-040649D02*
G01X0057283Y-040649D01*
G01X0057634Y-040649D02*
G01X0057634Y-040354D01*
G01X0057634Y-040354D02*
G01X0057705Y-040354D01*
G01X0057705Y-040354D02*
G01X0057747Y-040368D01*
G01X0057747Y-040368D02*
G01X0057775Y-040396D01*
G01X0057775Y-040396D02*
G01X0057789Y-040424D01*
G01X0057789Y-040424D02*
G01X0057803Y-040480D01*
G01X0057803Y-040480D02*
G01X0057803Y-040523D01*
G01X0057803Y-040523D02*
G01X0057789Y-040579D01*
G01X0057789Y-040579D02*
G01X0057775Y-040607D01*
G01X0057775Y-040607D02*
G01X0057747Y-040635D01*
G01X0057747Y-040635D02*
G01X0057705Y-040649D01*
G01X0057705Y-040649D02*
G01X0057634Y-040649D01*
G01X0058084Y-040649D02*
G01X0057916Y-040649D01*
G01X0058000Y-040649D02*
G01X0058000Y-040354D01*
G01X0058000Y-040354D02*
G01X0057972Y-040396D01*
G01X0057972Y-040396D02*
G01X0057944Y-040424D01*
G01X0057944Y-040424D02*
G01X0057916Y-040438D01*
G01X0058605Y-040621D02*
G01X0058591Y-040635D01*
G01X0058591Y-040635D02*
G01X0058548Y-040649D01*
G01X0058548Y-040649D02*
G01X0058520Y-040649D01*
G01X0058520Y-040649D02*
G01X0058478Y-040635D01*
G01X0058478Y-040635D02*
G01X0058450Y-040607D01*
G01X0058450Y-040607D02*
G01X0058436Y-040579D01*
G01X0058436Y-040579D02*
G01X0058422Y-040523D01*
G01X0058422Y-040523D02*
G01X0058422Y-040480D01*
G01X0058422Y-040480D02*
G01X0058436Y-040424D01*
G01X0058436Y-040424D02*
G01X0058450Y-040396D01*
G01X0058450Y-040396D02*
G01X0058478Y-040368D01*
G01X0058478Y-040368D02*
G01X0058520Y-040354D01*
G01X0058520Y-040354D02*
G01X0058548Y-040354D01*
G01X0058548Y-040354D02*
G01X0058591Y-040368D01*
G01X0058591Y-040368D02*
G01X0058605Y-040382D01*
G01X0058858Y-040452D02*
G01X0058858Y-040649D01*
G01X0058787Y-040340D02*
G01X0058717Y-040551D01*
G01X0058717Y-040551D02*
G01X0058900Y-040551D01*
G01X0059223Y-040340D02*
G01X0058970Y-040719D01*
G01X0059294Y-040354D02*
G01X0059476Y-040354D01*
G01X0059476Y-040354D02*
G01X0059378Y-040466D01*
G01X0059378Y-040466D02*
G01X0059420Y-040466D01*
G01X0059420Y-040466D02*
G01X0059448Y-040480D01*
G01X0059448Y-040480D02*
G01X0059462Y-040494D01*
G01X0059462Y-040494D02*
G01X0059476Y-040523D01*
G01X0059476Y-040523D02*
G01X0059476Y-040593D01*
G01X0059476Y-040593D02*
G01X0059462Y-040621D01*
G01X0059462Y-040621D02*
G01X0059448Y-040635D01*
G01X0059448Y-040635D02*
G01X0059420Y-040649D01*
G01X0059420Y-040649D02*
G01X0059336Y-040649D01*
G01X0059336Y-040649D02*
G01X0059308Y-040635D01*
G01X0059308Y-040635D02*
G01X0059294Y-040621D01*
G01X0059814Y-040340D02*
G01X0059561Y-040719D01*
G01X0059898Y-040382D02*
G01X0059912Y-040368D01*
G01X0059912Y-040368D02*
G01X0059940Y-040354D01*
G01X0059940Y-040354D02*
G01X0060011Y-040354D01*
G01X0060011Y-040354D02*
G01X0060039Y-040368D01*
G01X0060039Y-040368D02*
G01X0060053Y-040382D01*
G01X0060053Y-040382D02*
G01X0060067Y-040410D01*
G01X0060067Y-040410D02*
G01X0060067Y-040438D01*
G01X0060067Y-040438D02*
G01X0060053Y-040480D01*
G01X0060053Y-040480D02*
G01X0059884Y-040649D01*
G01X0059884Y-040649D02*
G01X0060067Y-040649D01*
G54D14*
G01X0061150Y-048108D02*
G01X0060700Y-048108D01*
G01X0060925Y-047883D02*
G01X0060925Y-048333D01*
G01X0056370Y-048108D02*
G01X0055920Y-048108D01*
G01X0055735Y-028631D02*
G01X0056184Y-028631D01*
G01X0055960Y-028856D02*
G01X0055960Y-028406D01*
G01X0060515Y-028631D02*
G01X0060965Y-028631D01*
G01X0054714Y-049223D02*
G01X0054714Y-048632D01*
G01X0054995Y-048829D02*
G01X0054995Y-049223D01*
G01X0054995Y-048885D02*
G01X0055024Y-048857D01*
G01X0055024Y-048857D02*
G01X0055080Y-048829D01*
G01X0055080Y-048829D02*
G01X0055164Y-048829D01*
G01X0055164Y-048829D02*
G01X0055220Y-048857D01*
G01X0055220Y-048857D02*
G01X0055249Y-048913D01*
G01X0055249Y-048913D02*
G01X0055249Y-049223D01*
G01X0055502Y-049195D02*
G01X0055558Y-049223D01*
G01X0055558Y-049223D02*
G01X0055670Y-049223D01*
G01X0055670Y-049223D02*
G01X0055727Y-049195D01*
G01X0055727Y-049195D02*
G01X0055755Y-049138D01*
G01X0055755Y-049138D02*
G01X0055755Y-049110D01*
G01X0055755Y-049110D02*
G01X0055727Y-049054D01*
G01X0055727Y-049054D02*
G01X0055670Y-049026D01*
G01X0055670Y-049026D02*
G01X0055586Y-049026D01*
G01X0055586Y-049026D02*
G01X0055530Y-048998D01*
G01X0055530Y-048998D02*
G01X0055502Y-048942D01*
G01X0055502Y-048942D02*
G01X0055502Y-048913D01*
G01X0055502Y-048913D02*
G01X0055530Y-048857D01*
G01X0055530Y-048857D02*
G01X0055586Y-048829D01*
G01X0055586Y-048829D02*
G01X0055670Y-048829D01*
G01X0055670Y-048829D02*
G01X0055727Y-048857D01*
G01X0055923Y-048829D02*
G01X0056148Y-048829D01*
G01X0056008Y-048632D02*
G01X0056008Y-049138D01*
G01X0056008Y-049138D02*
G01X0056036Y-049195D01*
G01X0056036Y-049195D02*
G01X0056092Y-049223D01*
G01X0056092Y-049223D02*
G01X0056148Y-049223D01*
G01X0056598Y-049223D02*
G01X0056598Y-048913D01*
G01X0056598Y-048913D02*
G01X0056570Y-048857D01*
G01X0056570Y-048857D02*
G01X0056514Y-048829D01*
G01X0056514Y-048829D02*
G01X0056402Y-048829D01*
G01X0056402Y-048829D02*
G01X0056345Y-048857D01*
G01X0056598Y-049195D02*
G01X0056542Y-049223D01*
G01X0056542Y-049223D02*
G01X0056402Y-049223D01*
G01X0056402Y-049223D02*
G01X0056345Y-049195D01*
G01X0056345Y-049195D02*
G01X0056317Y-049138D01*
G01X0056317Y-049138D02*
G01X0056317Y-049082D01*
G01X0056317Y-049082D02*
G01X0056345Y-049026D01*
G01X0056345Y-049026D02*
G01X0056402Y-048998D01*
G01X0056402Y-048998D02*
G01X0056542Y-048998D01*
G01X0056542Y-048998D02*
G01X0056598Y-048970D01*
G01X0056823Y-049223D02*
G01X0057133Y-048829D01*
G01X0056823Y-048829D02*
G01X0057133Y-049223D01*
G01X0057808Y-049223D02*
G01X0057808Y-048632D01*
G01X0057808Y-048632D02*
G01X0057948Y-048632D01*
G01X0057948Y-048632D02*
G01X0058033Y-048660D01*
G01X0058033Y-048660D02*
G01X0058089Y-048717D01*
G01X0058089Y-048717D02*
G01X0058117Y-048773D01*
G01X0058117Y-048773D02*
G01X0058145Y-048885D01*
G01X0058145Y-048885D02*
G01X0058145Y-048970D01*
G01X0058145Y-048970D02*
G01X0058117Y-049082D01*
G01X0058117Y-049082D02*
G01X0058089Y-049138D01*
G01X0058089Y-049138D02*
G01X0058033Y-049195D01*
G01X0058033Y-049195D02*
G01X0057948Y-049223D01*
G01X0057948Y-049223D02*
G01X0057808Y-049223D01*
G01X0058398Y-049223D02*
G01X0058398Y-048829D01*
G01X0058398Y-048942D02*
G01X0058426Y-048885D01*
G01X0058426Y-048885D02*
G01X0058454Y-048857D01*
G01X0058454Y-048857D02*
G01X0058511Y-048829D01*
G01X0058511Y-048829D02*
G01X0058567Y-048829D01*
G01X0058764Y-049223D02*
G01X0058764Y-048829D01*
G01X0058764Y-048632D02*
G01X0058736Y-048660D01*
G01X0058736Y-048660D02*
G01X0058764Y-048688D01*
G01X0058764Y-048688D02*
G01X0058792Y-048660D01*
G01X0058792Y-048660D02*
G01X0058764Y-048632D01*
G01X0058764Y-048632D02*
G01X0058764Y-048688D01*
G01X0058989Y-048829D02*
G01X0059129Y-049223D01*
G01X0059129Y-049223D02*
G01X0059270Y-048829D01*
G01X0059720Y-049195D02*
G01X0059664Y-049223D01*
G01X0059664Y-049223D02*
G01X0059551Y-049223D01*
G01X0059551Y-049223D02*
G01X0059495Y-049195D01*
G01X0059495Y-049195D02*
G01X0059467Y-049138D01*
G01X0059467Y-049138D02*
G01X0059467Y-048913D01*
G01X0059467Y-048913D02*
G01X0059495Y-048857D01*
G01X0059495Y-048857D02*
G01X0059551Y-048829D01*
G01X0059551Y-048829D02*
G01X0059664Y-048829D01*
G01X0059664Y-048829D02*
G01X0059720Y-048857D01*
G01X0059720Y-048857D02*
G01X0059748Y-048913D01*
G01X0059748Y-048913D02*
G01X0059748Y-048970D01*
G01X0059748Y-048970D02*
G01X0059467Y-049026D01*
G01X0060001Y-049223D02*
G01X0060001Y-048829D01*
G01X0060001Y-048942D02*
G01X0060029Y-048885D01*
G01X0060029Y-048885D02*
G01X0060057Y-048857D01*
G01X0060057Y-048857D02*
G01X0060114Y-048829D01*
G01X0060114Y-048829D02*
G01X0060170Y-048829D01*
G01X0060732Y-048632D02*
G01X0060929Y-049223D01*
G01X0060929Y-049223D02*
G01X0061126Y-048632D01*
G01X0061295Y-048688D02*
G01X0061323Y-048660D01*
G01X0061323Y-048660D02*
G01X0061379Y-048632D01*
G01X0061379Y-048632D02*
G01X0061520Y-048632D01*
G01X0061520Y-048632D02*
G01X0061576Y-048660D01*
G01X0061576Y-048660D02*
G01X0061604Y-048688D01*
G01X0061604Y-048688D02*
G01X0061632Y-048745D01*
G01X0061632Y-048745D02*
G01X0061632Y-048801D01*
G01X0061632Y-048801D02*
G01X0061604Y-048885D01*
G01X0061604Y-048885D02*
G01X0061267Y-049223D01*
G01X0061267Y-049223D02*
G01X0061632Y-049223D01*
G01X0061885Y-049167D02*
G01X0061913Y-049195D01*
G01X0061913Y-049195D02*
G01X0061885Y-049223D01*
G01X0061885Y-049223D02*
G01X0061857Y-049195D01*
G01X0061857Y-049195D02*
G01X0061885Y-049167D01*
G01X0061885Y-049167D02*
G01X0061885Y-049223D01*
G01X0062279Y-048632D02*
G01X0062335Y-048632D01*
G01X0062335Y-048632D02*
G01X0062391Y-048660D01*
G01X0062391Y-048660D02*
G01X0062420Y-048688D01*
G01X0062420Y-048688D02*
G01X0062448Y-048745D01*
G01X0062448Y-048745D02*
G01X0062476Y-048857D01*
G01X0062476Y-048857D02*
G01X0062476Y-048998D01*
G01X0062476Y-048998D02*
G01X0062448Y-049110D01*
G01X0062448Y-049110D02*
G01X0062420Y-049167D01*
G01X0062420Y-049167D02*
G01X0062391Y-049195D01*
G01X0062391Y-049195D02*
G01X0062335Y-049223D01*
G01X0062335Y-049223D02*
G01X0062279Y-049223D01*
G01X0062279Y-049223D02*
G01X0062223Y-049195D01*
G01X0062223Y-049195D02*
G01X0062195Y-049167D01*
G01X0062195Y-049167D02*
G01X0062166Y-049110D01*
G01X0062166Y-049110D02*
G01X0062138Y-048998D01*
G01X0062138Y-048998D02*
G01X0062138Y-048857D01*
G01X0062138Y-048857D02*
G01X0062166Y-048745D01*
G01X0062166Y-048745D02*
G01X0062195Y-048688D01*
G01X0062195Y-048688D02*
G01X0062223Y-048660D01*
G01X0062223Y-048660D02*
G01X0062279Y-048632D01*
G54D13*
G01X0058015Y-039906D02*
G01X0058015Y-039158D01*
G01X0057582Y-039906D02*
G01X0057582Y-039158D01*
G01X0055719Y-035265D02*
G01X0055719Y-035974D01*
G01X0056191Y-035265D02*
G01X0056191Y-035974D01*
G01X0060007Y-039309D02*
G01X0060007Y-039584D01*
G01X0059535Y-039584D02*
G01X0059535Y-039309D01*
G01X0060591Y-034913D02*
G01X0060591Y-034520D01*
G01X0061123Y-034520D02*
G01X0061123Y-034913D01*
G01X0059362Y-039312D02*
G01X0059362Y-039587D01*
G01X0058890Y-039587D02*
G01X0058890Y-039312D01*
G01X0055721Y-039776D02*
G01X0055721Y-039166D01*
G01X0055611Y-037666D02*
G01X0055611Y-038666D01*
G01X0055611Y-038666D02*
G01X0054611Y-038666D01*
G01X0054501Y-039166D02*
G01X0054501Y-039776D01*
G01X0054501Y-039776D02*
G01X0055721Y-039776D01*
G01X0054611Y-038666D02*
G01X0054611Y-037666D01*
G01X0054611Y-037666D02*
G01X0055611Y-037666D01*
G01X0055726Y-042826D02*
G01X0055726Y-042216D01*
G01X0055616Y-040716D02*
G01X0055616Y-041716D01*
G01X0055616Y-041716D02*
G01X0054616Y-041716D01*
G01X0054506Y-042216D02*
G01X0054506Y-042826D01*
G01X0054506Y-042826D02*
G01X0055726Y-042826D01*
G01X0054616Y-041716D02*
G01X0054616Y-040716D01*
G01X0054616Y-040716D02*
G01X0055616Y-040716D01*
G01X0060596Y-036076D02*
G01X0060596Y-038076D01*
G01X0060486Y-039186D02*
G01X0060486Y-038576D01*
G01X0061596Y-039076D02*
G01X0061596Y-038076D01*
G01X0061596Y-038076D02*
G01X0060596Y-038076D01*
G01X0060596Y-036076D02*
G01X0062596Y-036076D01*
G01X0062596Y-036076D02*
G01X0062596Y-038076D01*
G01X0060486Y-039186D02*
G01X0061096Y-039186D01*
G01X0062596Y-039076D02*
G01X0061596Y-039076D01*
G01X0062596Y-038076D02*
G01X0062596Y-039076D01*
G01X0057423Y-039290D02*
G01X0057423Y-039683D01*
G01X0056891Y-039683D02*
G01X0056891Y-039290D01*
G01X0058692Y-039319D02*
G01X0058692Y-039594D01*
G01X0058220Y-039594D02*
G01X0058220Y-039319D01*
G01X0059571Y-034602D02*
G01X0059571Y-034995D01*
G01X0059039Y-034995D02*
G01X0059039Y-034602D01*
G01X0054307Y-034601D02*
G01X0054307Y-035212D01*
G01X0054417Y-036712D02*
G01X0054417Y-035712D01*
G01X0054417Y-035712D02*
G01X0055417Y-035712D01*
G01X0055527Y-035212D02*
G01X0055527Y-034601D01*
G01X0055527Y-034601D02*
G01X0054307Y-034601D01*
G01X0055417Y-035712D02*
G01X0055417Y-036712D01*
G01X0055417Y-036712D02*
G01X0054417Y-036712D01*
G01X0061265Y-034853D02*
G01X0061265Y-034578D01*
G01X0061737Y-034578D02*
G01X0061737Y-034853D01*
G54D16*
G01X0053748Y-033259D02*
G01X0054168Y-033259D01*
G01X0053958Y-033469D02*
G01X0053958Y-033049D01*
G01X0053748Y-033259D02*
G01X0054168Y-033259D01*
G01X0053958Y-033469D02*
G01X0053958Y-033049D01*
G01X0053748Y-033259D02*
G01X0054168Y-033259D01*
G01X0053958Y-033469D02*
G01X0053958Y-033049D01*
G01X0053748Y-033259D02*
G01X0054168Y-033259D01*
G01X0053958Y-033469D02*
G01X0053958Y-033049D01*
G54D13*
G01X0060868Y-035851D02*
G01X0060769Y-035711D01*
G01X0060699Y-035851D02*
G01X0060699Y-035556D01*
G01X0060699Y-035556D02*
G01X0060811Y-035556D01*
G01X0060811Y-035556D02*
G01X0060840Y-035570D01*
G01X0060840Y-035570D02*
G01X0060854Y-035584D01*
G01X0060854Y-035584D02*
G01X0060868Y-035612D01*
G01X0060868Y-035612D02*
G01X0060868Y-035654D01*
G01X0060868Y-035654D02*
G01X0060854Y-035682D01*
G01X0060854Y-035682D02*
G01X0060840Y-035696D01*
G01X0060840Y-035696D02*
G01X0060811Y-035711D01*
G01X0060811Y-035711D02*
G01X0060699Y-035711D01*
G01X0061149Y-035851D02*
G01X0060980Y-035851D01*
G01X0061065Y-035851D02*
G01X0061065Y-035556D01*
G01X0061065Y-035556D02*
G01X0061036Y-035598D01*
G01X0061036Y-035598D02*
G01X0061008Y-035626D01*
G01X0061008Y-035626D02*
G01X0060980Y-035640D01*
G54D16*
G01X0062803Y-044038D02*
G01X0063223Y-044038D01*
G01X0063013Y-044248D02*
G01X0063013Y-043828D01*
G01X0062803Y-044038D02*
G01X0063223Y-044038D01*
G01X0063013Y-044248D02*
G01X0063013Y-043828D01*
G01X0062803Y-044038D02*
G01X0063223Y-044038D01*
G01X0063013Y-044248D02*
G01X0063013Y-043828D01*
G01X0062803Y-044038D02*
G01X0063223Y-044038D01*
G01X0063013Y-044248D02*
G01X0063013Y-043828D01*
G54D13*
G01X0059246Y-035951D02*
G01X0059147Y-035811D01*
G01X0059077Y-035951D02*
G01X0059077Y-035656D01*
G01X0059077Y-035656D02*
G01X0059189Y-035656D01*
G01X0059189Y-035656D02*
G01X0059218Y-035670D01*
G01X0059218Y-035670D02*
G01X0059232Y-035684D01*
G01X0059232Y-035684D02*
G01X0059246Y-035712D01*
G01X0059246Y-035712D02*
G01X0059246Y-035754D01*
G01X0059246Y-035754D02*
G01X0059232Y-035782D01*
G01X0059232Y-035782D02*
G01X0059218Y-035796D01*
G01X0059218Y-035796D02*
G01X0059189Y-035811D01*
G01X0059189Y-035811D02*
G01X0059077Y-035811D01*
G01X0059344Y-035656D02*
G01X0059527Y-035656D01*
G01X0059527Y-035656D02*
G01X0059429Y-035768D01*
G01X0059429Y-035768D02*
G01X0059471Y-035768D01*
G01X0059471Y-035768D02*
G01X0059499Y-035782D01*
G01X0059499Y-035782D02*
G01X0059513Y-035796D01*
G01X0059513Y-035796D02*
G01X0059527Y-035825D01*
G01X0059527Y-035825D02*
G01X0059527Y-035895D01*
G01X0059527Y-035895D02*
G01X0059513Y-035923D01*
G01X0059513Y-035923D02*
G01X0059499Y-035937D01*
G01X0059499Y-035937D02*
G01X0059471Y-035951D01*
G01X0059471Y-035951D02*
G01X0059386Y-035951D01*
G01X0059386Y-035951D02*
G01X0059358Y-035937D01*
G01X0059358Y-035937D02*
G01X0059344Y-035923D01*
G01X0061488Y-035831D02*
G01X0061474Y-035845D01*
G01X0061474Y-035845D02*
G01X0061431Y-035859D01*
G01X0061431Y-035859D02*
G01X0061403Y-035859D01*
G01X0061403Y-035859D02*
G01X0061361Y-035845D01*
G01X0061361Y-035845D02*
G01X0061333Y-035817D01*
G01X0061333Y-035817D02*
G01X0061319Y-035789D01*
G01X0061319Y-035789D02*
G01X0061305Y-035733D01*
G01X0061305Y-035733D02*
G01X0061305Y-035690D01*
G01X0061305Y-035690D02*
G01X0061319Y-035634D01*
G01X0061319Y-035634D02*
G01X0061333Y-035606D01*
G01X0061333Y-035606D02*
G01X0061361Y-035578D01*
G01X0061361Y-035578D02*
G01X0061403Y-035564D01*
G01X0061403Y-035564D02*
G01X0061431Y-035564D01*
G01X0061431Y-035564D02*
G01X0061474Y-035578D01*
G01X0061474Y-035578D02*
G01X0061488Y-035592D01*
G01X0061741Y-035662D02*
G01X0061741Y-035859D01*
G01X0061671Y-035550D02*
G01X0061600Y-035761D01*
G01X0061600Y-035761D02*
G01X0061783Y-035761D01*
M02*
