M48
;DRILL file {KiCad 4.0.5+dfsg1-4} date Thu Jun 25 19:11:40 2020
;FORMAT={-:-/ absolute / metric / decimal}
FMAT,2
METRIC,TZ
T1C0.600
T2C1.016
T3C1.780
%
G90
G05
M71
T1
X142.535Y-104.21
X142.535Y-105.71
X142.535Y-107.21
X144.035Y-104.21
X144.035Y-105.71
X144.035Y-107.21
X148.537Y-104.195
X148.948Y-90.743
X151.42Y-91.816
X151.535Y-104.21
X151.535Y-105.71
X151.535Y-107.21
X152.717Y-89.534
X153.035Y-104.21
X153.035Y-105.71
X153.035Y-107.21
T2
X139.489Y-89.437
X139.489Y-91.977
X139.982Y-96.941
X139.982Y-99.481
X139.994Y-104.688
X139.994Y-107.228
X155.184Y-92.902
X155.184Y-95.442
X155.184Y-97.982
X157.724Y-92.902
X157.724Y-95.442
X157.724Y-97.982
T3
X142.553Y-76.757
X142.553Y-76.757
X142.553Y-76.757
X142.553Y-76.757
X142.553Y-84.377
X142.553Y-84.377
X142.553Y-84.377
X142.553Y-84.377
X142.553Y-84.377
X142.553Y-111.806
X142.553Y-119.426
X154.553Y-76.707
X154.553Y-84.327
X154.553Y-111.756
X154.553Y-111.756
X154.553Y-111.756
X154.553Y-111.756
X154.553Y-111.756
X154.553Y-119.376
X154.553Y-119.376
X154.553Y-119.376
X154.553Y-119.376
T0
M30
